<?xml version="1.0" encoding="utf-8"?>
<!-- Generator: Adobe Illustrator 23.0.1, SVG Export Plug-In . SVG Version: 6.00 Build 0)  -->
<svg version="1.1" id="Layer_1" xmlns="http://www.w3.org/2000/svg" xmlns:xlink="http://www.w3.org/1999/xlink" x="0px" y="0px"
	 viewBox="0 0 437 100" enable-background="new 0 0 437 100" xml:space="preserve">
<g>
	<g>
		<path fill="#606061" d="M97.995,50l-15-27H28.764c-3.186,0-5.769,2.59-5.769,5.786v42.428c0,3.195,2.583,5.786,5.769,5.786h54.231
			L97.995,50z"/>
		<path fill="#BA1F40" d="M96.496,25.815C95.44,24.069,93.536,23,91.481,23h-4.485l15.201,27L86.995,77h4.486
			c2.055,0,3.96-1.069,5.015-2.815L109.995,50L96.496,25.815z"/>
	</g>
	<g>
		<rect x="54.995" y="38" fill="#FFFFFF" width="4" height="24"/>
		<polygon fill="#FFFFFF" points="46.995,38 46.995,55.6 35.995,38 31.995,38 31.995,62 35.995,62 35.995,44.4 46.995,62 50.995,62 
			50.995,38 		"/>
		<polygon fill="#FFFFFF" points="77.995,38 77.995,48 66.995,48 66.995,38 62.995,38 62.995,62 66.995,62 66.995,52 77.995,52 
			77.995,62 81.995,62 81.995,38 		"/>
	</g>
</g>
<g>
	<g>
		<path fill="#BB0E3D" d="M130.849,31h2.495v11.184h-2.495l-5.328-7.008v7.008h-2.496V31h2.336l5.488,7.2V31z"/>
		<path fill="#BB0E3D" d="M144.064,42.184l-1.04-2.416h-4.688l-1.04,2.416h-2.656L139.472,31h2.416l4.832,11.184H144.064z
			 M140.688,34.327l-1.407,3.248h2.8L140.688,34.327z"/>
		<path fill="#BB0E3D" d="M151.936,33.159v9.025h-2.495v-9.025h-3.168V31h8.831v2.159H151.936z"/>
		<path fill="#BB0E3D" d="M156.928,31h2.496v11.184h-2.496V31z"/>
		<path fill="#BB0E3D" d="M171.584,40.64c-1.131,1.104-2.522,1.656-4.176,1.656s-3.046-0.553-4.176-1.656
			c-1.131-1.104-1.696-2.478-1.696-4.121c0-1.643,0.565-3.016,1.696-4.12c1.13-1.104,2.522-1.656,4.176-1.656
			s3.045,0.553,4.176,1.656c1.131,1.104,1.696,2.478,1.696,4.12C173.28,38.162,172.715,39.535,171.584,40.64z M170.736,36.527
			c0-0.997-0.32-1.848-0.96-2.552c-0.641-0.704-1.427-1.056-2.36-1.056s-1.72,0.352-2.36,1.056c-0.64,0.704-0.96,1.555-0.96,2.552
			c0,0.998,0.32,1.846,0.96,2.544c0.641,0.699,1.427,1.048,2.36,1.048s1.72-0.349,2.36-1.048
			C170.416,38.373,170.736,37.525,170.736,36.527z"/>
		<path fill="#BB0E3D" d="M183.216,31h2.496v11.184h-2.496l-5.328-7.008v7.008h-2.496V31h2.336l5.488,7.2V31z"/>
		<path fill="#BB0E3D" d="M196.432,42.184l-1.04-2.416h-4.688l-1.04,2.416h-2.656L191.84,31h2.416l4.832,11.184H196.432z
			 M193.056,34.327l-1.408,3.248h2.8L193.056,34.327z"/>
		<path fill="#BB0E3D" d="M200.384,42.184V31h2.496v8.96h4.768v2.224H200.384z"/>
		<path fill="#BB0E3D" d="M218.832,39.976c1.226,0,2.229-0.485,3.008-1.456l1.6,1.648c-1.27,1.429-2.766,2.144-4.488,2.144
			s-3.141-0.544-4.256-1.632c-1.114-1.088-1.672-2.461-1.672-4.121c0-1.658,0.568-3.042,1.704-4.152
			c1.136-1.108,2.525-1.664,4.168-1.664c1.835,0,3.37,0.699,4.608,2.097l-1.553,1.76c-0.789-0.981-1.771-1.472-2.943-1.472
			c-0.939,0-1.742,0.307-2.408,0.92c-0.667,0.613-1,1.439-1,2.479s0.314,1.875,0.944,2.504
			C217.173,39.661,217.936,39.976,218.832,39.976z"/>
		<path fill="#BB0E3D" d="M233.296,42.184l-1.04-2.416h-4.688l-1.04,2.416h-2.656L228.704,31h2.416l4.832,11.184H233.296z
			 M229.92,34.327l-1.408,3.248h2.8L229.92,34.327z"/>
		<path fill="#BB0E3D" d="M245.072,31h2.495v11.184h-2.495l-5.328-7.008v7.008h-2.496V31h2.336l5.488,7.2V31z"/>
		<path fill="#BB0E3D" d="M255.455,39.976c1.227,0,2.229-0.485,3.008-1.456l1.601,1.648c-1.27,1.429-2.766,2.144-4.488,2.144
			s-3.142-0.544-4.256-1.632c-1.115-1.088-1.672-2.461-1.672-4.121c0-1.658,0.567-3.042,1.704-4.152
			c1.136-1.108,2.524-1.664,4.168-1.664c1.834,0,3.37,0.699,4.607,2.097l-1.552,1.76c-0.79-0.981-1.771-1.472-2.944-1.472
			c-0.938,0-1.741,0.307-2.408,0.92c-0.666,0.613-1,1.439-1,2.479s0.315,1.875,0.944,2.504
			C253.796,39.661,254.56,39.976,255.455,39.976z"/>
		<path fill="#BB0E3D" d="M270.095,31v2.224h-5.567v2.304h5.008v2.128h-5.008v2.321h5.744v2.208h-8.24V31H270.095z"/>
		<path fill="#BB0E3D" d="M281.567,34.711c0,1.792-0.71,2.949-2.129,3.472l2.832,4h-3.071l-2.48-3.568h-1.728v3.568h-2.496V31h4.24
			c1.738,0,2.979,0.293,3.72,0.88S281.567,33.41,281.567,34.711z M278.559,36.04c0.31-0.277,0.464-0.718,0.464-1.32
			s-0.159-1.017-0.479-1.24s-0.88-0.336-1.68-0.336h-1.872v3.312h1.823C277.668,36.456,278.249,36.317,278.559,36.04z"/>
		<path fill="#BB0E3D" d="M288.352,31h2.496v11.184h-2.496V31z"/>
		<path fill="#BB0E3D" d="M301.424,31h2.495v11.184h-2.495l-5.328-7.008v7.008H293.6V31h2.336l5.488,7.2V31z"/>
		<path fill="#BB0E3D" d="M309.287,33.231c-0.24,0.197-0.36,0.459-0.36,0.784s0.146,0.584,0.439,0.776
			c0.294,0.191,0.971,0.418,2.032,0.68s1.886,0.653,2.473,1.176c0.586,0.522,0.88,1.285,0.88,2.289c0,1.003-0.376,1.816-1.128,2.44
			s-1.742,0.936-2.969,0.936c-1.771,0-3.365-0.656-4.783-1.968l1.487-1.824c1.205,1.056,2.32,1.584,3.345,1.584
			c0.458,0,0.818-0.099,1.079-0.296c0.262-0.197,0.393-0.464,0.393-0.8s-0.139-0.603-0.416-0.8s-0.827-0.398-1.648-0.601
			c-1.301-0.309-2.253-0.712-2.855-1.208s-0.904-1.274-0.904-2.336s0.381-1.88,1.145-2.456c0.762-0.576,1.714-0.864,2.855-0.864
			c0.747,0,1.493,0.129,2.24,0.385c0.746,0.256,1.397,0.618,1.952,1.088l-1.265,1.824c-0.971-0.736-1.973-1.104-3.008-1.104
			C309.854,32.935,309.526,33.034,309.287,33.231z"/>
		<path fill="#BB0E3D" d="M321.519,33.159v9.025h-2.496v-9.025h-3.168V31h8.832v2.159H321.519z"/>
		<path fill="#BB0E3D" d="M326.51,31h2.496v11.184h-2.496V31z"/>
		<path fill="#BB0E3D" d="M336.494,33.159v9.025h-2.496v-9.025h-3.168V31h8.832v2.159H336.494z"/>
		<path fill="#BB0E3D" d="M344.445,39.296c0.416,0.518,0.977,0.775,1.681,0.775s1.261-0.258,1.672-0.775
			c0.41-0.518,0.616-1.225,0.616-2.121V31h2.495v6.256c0,1.622-0.447,2.867-1.344,3.736c-0.896,0.87-2.043,1.305-3.439,1.305
			c-1.397,0-2.547-0.438-3.448-1.312c-0.901-0.874-1.353-2.117-1.353-3.728V31h2.496v6.176
			C343.821,38.071,344.029,38.778,344.445,39.296z"/>
		<path fill="#BB0E3D" d="M358.237,33.159v9.025h-2.496v-9.025h-3.168V31h8.832v2.159H358.237z"/>
		<path fill="#BB0E3D" d="M371.293,31v2.224h-5.568v2.304h5.008v2.128h-5.008v2.321h5.744v2.208h-8.24V31H371.293z"/>
	</g>
</g>
<g>
	<path fill="#606060" d="M132.933,55.58c1.028,0.875,1.543,2.219,1.543,4.032c0,1.812-0.528,3.14-1.585,3.979
		c-1.058,0.841-2.671,1.261-4.841,1.261h-1.953v4.095h-3.276V54.268h5.188C130.262,54.268,131.904,54.705,132.933,55.58z
		 M130.528,61.355c0.392-0.441,0.588-1.085,0.588-1.933c0-0.847-0.255-1.449-0.766-1.806c-0.512-0.357-1.306-0.536-2.384-0.536
		h-1.869v4.936h2.205C129.394,62.017,130.136,61.796,130.528,61.355z"/>
	<path fill="#606060" d="M142.666,60.421c-0.938,0-1.638,0.332-2.1,0.997s-0.693,1.544-0.693,2.636v4.893h-3.149V57.648h3.149v1.491
		c0.406-0.462,0.914-0.854,1.522-1.176c0.609-0.322,1.229-0.49,1.859-0.504l0.021,2.961H142.666z"/>
	<path fill="#606060" d="M156.484,63.298c0,1.638-0.567,3.017-1.701,4.137s-2.559,1.68-4.273,1.68s-3.14-0.56-4.273-1.68
		s-1.701-2.499-1.701-4.137c0-1.639,0.567-3.021,1.701-4.147s2.559-1.69,4.273-1.69s3.14,0.563,4.273,1.69
		S156.484,61.659,156.484,63.298z M147.706,63.298c0,0.924,0.263,1.676,0.788,2.257c0.524,0.581,1.196,0.872,2.016,0.872
		s1.491-0.291,2.016-0.872c0.525-0.581,0.788-1.333,0.788-2.257c0-0.925-0.263-1.681-0.788-2.269
		c-0.524-0.588-1.196-0.882-2.016-0.882s-1.491,0.294-2.016,0.882C147.968,61.617,147.706,62.373,147.706,63.298z"/>
	<path fill="#606060" d="M162.364,59.917v5.061c0,0.434,0.112,0.773,0.336,1.019s0.49,0.367,0.798,0.367
		c0.588,0,1.085-0.266,1.491-0.798l1.176,2.205c-0.979,0.896-2.013,1.344-3.098,1.344s-2.002-0.357-2.751-1.071
		s-1.123-1.687-1.123-2.919v-5.207h-1.323v-2.269h1.323v-3.381h3.171v3.381h2.73v2.269H162.364z"/>
	<path fill="#606060" d="M177.63,67.309c-1.274,1.204-2.77,1.806-4.483,1.806c-1.716,0-3.133-0.528-4.253-1.586
		c-1.12-1.057-1.68-2.474-1.68-4.252c0-1.777,0.57-3.191,1.711-4.242c1.142-1.05,2.488-1.574,4.043-1.574
		c1.554,0,2.873,0.469,3.958,1.406c1.085,0.938,1.628,2.227,1.628,3.864v1.68h-8.232c0.098,0.616,0.42,1.12,0.966,1.512
		c0.547,0.393,1.162,0.589,1.849,0.589c1.105,0,2.016-0.371,2.729-1.113L177.63,67.309z M174.606,60.609
		c-0.434-0.363-0.963-0.546-1.585-0.546c-0.624,0-1.194,0.189-1.712,0.567c-0.519,0.378-0.819,0.889-0.903,1.532h4.956
		C175.292,61.491,175.04,60.974,174.606,60.609z"/>
	<path fill="#606060" d="M192.12,63.298c0,1.638-0.567,3.017-1.701,4.137s-2.559,1.68-4.273,1.68s-3.14-0.56-4.273-1.68
		s-1.701-2.499-1.701-4.137c0-1.639,0.567-3.021,1.701-4.147s2.559-1.69,4.273-1.69s3.14,0.563,4.273,1.69
		S192.12,61.659,192.12,63.298z M183.341,63.298c0,0.924,0.263,1.676,0.788,2.257c0.524,0.581,1.196,0.872,2.016,0.872
		s1.491-0.291,2.016-0.872c0.525-0.581,0.788-1.333,0.788-2.257c0-0.925-0.263-1.681-0.788-2.269
		c-0.524-0.588-1.196-0.882-2.016-0.882s-1.491,0.294-2.016,0.882C183.604,61.617,183.341,62.373,183.341,63.298z"/>
	<path fill="#606060" d="M204.825,62.856v6.09h-3.171v-6.174c0-0.896-0.137-1.554-0.41-1.974c-0.272-0.42-0.714-0.63-1.322-0.63
		c-0.609,0-1.148,0.228-1.617,0.682c-0.47,0.455-0.704,1.124-0.704,2.006v6.09h-3.149V57.648h3.149v1.281
		c0.868-0.979,1.862-1.47,2.982-1.47c0.714,0,1.361,0.21,1.942,0.63s1.019,0.931,1.312,1.532c0.434-0.686,1.019-1.218,1.754-1.596
		c0.734-0.378,1.473-0.566,2.215-0.566c1.33,0,2.401,0.396,3.213,1.187c0.812,0.791,1.219,1.936,1.219,3.433v6.867h-3.171v-6.174
		c0-1.735-0.638-2.604-1.911-2.604c-0.63,0-1.177,0.228-1.639,0.682C205.055,61.306,204.825,61.975,204.825,62.856z"/>
	<path fill="#606060" d="M215.356,56.21c-0.357-0.356-0.536-0.794-0.536-1.312c0-0.518,0.179-0.955,0.536-1.312
		c0.356-0.356,0.794-0.535,1.312-0.535c0.518,0,0.955,0.179,1.312,0.535c0.356,0.357,0.535,0.795,0.535,1.312
		c0,0.519-0.179,0.956-0.535,1.312c-0.357,0.357-0.795,0.535-1.312,0.535C216.15,56.745,215.712,56.567,215.356,56.21z
		 M218.243,68.946h-3.149V57.648h3.149V68.946z"/>
	<path fill="#606060" d="M226.643,66.321c1.05,0,1.995-0.525,2.835-1.575l1.869,2.101c-1.456,1.512-3.031,2.268-4.726,2.268
		c-1.693,0-3.125-0.535-4.294-1.606s-1.754-2.471-1.754-4.2c0-1.729,0.592-3.136,1.774-4.221c1.184-1.085,2.587-1.627,4.211-1.627
		c0.812,0,1.634,0.168,2.468,0.504c0.832,0.336,1.564,0.833,2.194,1.49l-1.639,2.143c-0.364-0.434-0.809-0.77-1.333-1.008
		c-0.525-0.238-1.047-0.357-1.564-0.357c-0.826,0-1.537,0.27-2.132,0.809s-0.893,1.288-0.893,2.246c0,0.96,0.298,1.705,0.893,2.237
		S225.845,66.321,226.643,66.321z"/>
	<path fill="#606060" d="M250.519,56.189c1.4,1.28,2.101,3.062,2.101,5.344c0,2.282-0.683,4.088-2.048,5.418
		s-3.447,1.995-6.247,1.995h-5.02V54.268h5.188C247.11,54.268,249.12,54.908,250.519,56.189z M248.115,64.914
		c0.805-0.756,1.208-1.854,1.208-3.297c0-1.441-0.403-2.551-1.208-3.328s-2.04-1.166-3.706-1.166h-1.827v8.925h2.079
		C246.159,66.048,247.31,65.67,248.115,64.914z"/>
	<path fill="#606060" d="M264.59,68.946h-2.961v-1.365c-0.812,1.022-1.816,1.533-3.014,1.533s-2.201-0.347-3.014-1.039
		c-0.812-0.693-1.218-1.617-1.218-2.772s0.42-2.019,1.26-2.593c0.841-0.574,1.988-0.861,3.444-0.861h2.353v-0.063
		c0-1.203-0.638-1.806-1.911-1.806c-0.546,0-1.124,0.108-1.732,0.325c-0.609,0.218-1.124,0.487-1.544,0.809l-1.407-2.037
		c1.484-1.077,3.178-1.616,5.082-1.616c1.372,0,2.492,0.343,3.36,1.028c0.868,0.687,1.302,1.771,1.302,3.255V68.946z
		 M261.419,64.642v-0.546h-1.974c-1.261,0-1.891,0.392-1.891,1.176c0,0.406,0.15,0.718,0.452,0.935
		c0.301,0.217,0.731,0.325,1.291,0.325s1.054-0.171,1.48-0.515C261.206,65.674,261.419,65.216,261.419,64.642z"/>
	<path fill="#606060" d="M271.1,59.917v5.061c0,0.434,0.112,0.773,0.336,1.019s0.49,0.367,0.798,0.367
		c0.588,0,1.085-0.266,1.491-0.798l1.176,2.205c-0.979,0.896-2.013,1.344-3.098,1.344s-2.002-0.357-2.751-1.071
		s-1.123-1.687-1.123-2.919v-5.207h-1.323v-2.269h1.323v-3.381h3.171v3.381h2.73v2.269H271.1z"/>
	<path fill="#606060" d="M286.177,68.946h-2.961v-1.365c-0.812,1.022-1.816,1.533-3.014,1.533s-2.201-0.347-3.014-1.039
		c-0.812-0.693-1.218-1.617-1.218-2.772s0.42-2.019,1.26-2.593c0.841-0.574,1.988-0.861,3.444-0.861h2.353v-0.063
		c0-1.203-0.638-1.806-1.911-1.806c-0.546,0-1.124,0.108-1.732,0.325c-0.609,0.218-1.124,0.487-1.544,0.809l-1.407-2.037
		c1.484-1.077,3.178-1.616,5.082-1.616c1.372,0,2.492,0.343,3.36,1.028c0.868,0.687,1.302,1.771,1.302,3.255V68.946z
		 M283.006,64.642v-0.546h-1.974c-1.261,0-1.891,0.392-1.891,1.176c0,0.406,0.15,0.718,0.452,0.935
		c0.301,0.217,0.731,0.325,1.291,0.325s1.054-0.171,1.48-0.515C282.792,65.674,283.006,65.216,283.006,64.642z"/>
	<path fill="#606060" d="M301.654,66.048c1.61,0,2.926-0.637,3.948-1.91l2.1,2.162c-1.666,1.877-3.63,2.814-5.891,2.814
		s-4.123-0.714-5.586-2.142c-1.463-1.429-2.194-3.231-2.194-5.407c0-2.177,0.746-3.994,2.236-5.45
		c1.491-1.456,3.314-2.184,5.471-2.184c2.408,0,4.424,0.917,6.048,2.751l-2.037,2.31c-1.036-1.287-2.323-1.932-3.863-1.932
		c-1.232,0-2.286,0.402-3.161,1.207c-0.875,0.806-1.312,1.891-1.312,3.256c0,1.364,0.413,2.46,1.239,3.286
		S300.478,66.048,301.654,66.048z"/>
	<path fill="#606060" d="M320.827,63.298c0,1.638-0.567,3.017-1.701,4.137s-2.559,1.68-4.273,1.68s-3.14-0.56-4.273-1.68
		s-1.701-2.499-1.701-4.137c0-1.639,0.567-3.021,1.701-4.147s2.559-1.69,4.273-1.69s3.14,0.563,4.273,1.69
		S320.827,61.659,320.827,63.298z M312.048,63.298c0,0.924,0.263,1.676,0.788,2.257c0.524,0.581,1.196,0.872,2.016,0.872
		s1.491-0.291,2.016-0.872c0.525-0.581,0.788-1.333,0.788-2.257c0-0.925-0.263-1.681-0.788-2.269
		c-0.524-0.588-1.196-0.882-2.016-0.882s-1.491,0.294-2.016,0.882C312.311,61.617,312.048,62.373,312.048,63.298z"/>
	<path fill="#606060" d="M333.532,62.856v6.09h-3.171v-6.174c0-0.896-0.137-1.554-0.41-1.974c-0.272-0.42-0.714-0.63-1.322-0.63
		c-0.609,0-1.148,0.228-1.617,0.682c-0.47,0.455-0.704,1.124-0.704,2.006v6.09h-3.149V57.648h3.149v1.281
		c0.868-0.979,1.862-1.47,2.982-1.47c0.714,0,1.361,0.21,1.942,0.63s1.019,0.931,1.312,1.532c0.434-0.686,1.019-1.218,1.754-1.596
		c0.734-0.378,1.473-0.566,2.215-0.566c1.33,0,2.401,0.396,3.213,1.187c0.812,0.791,1.219,1.936,1.219,3.433v6.867h-3.171v-6.174
		c0-1.735-0.638-2.604-1.911-2.604c-0.63,0-1.177,0.228-1.639,0.682C333.762,61.306,333.532,61.975,333.532,62.856z"/>
	<path fill="#606060" d="M354.174,62.856v6.09h-3.171v-6.174c0-0.896-0.137-1.554-0.41-1.974c-0.272-0.42-0.714-0.63-1.322-0.63
		c-0.609,0-1.148,0.228-1.617,0.682c-0.47,0.455-0.704,1.124-0.704,2.006v6.09H343.8V57.648h3.149v1.281
		c0.868-0.979,1.862-1.47,2.982-1.47c0.714,0,1.361,0.21,1.942,0.63s1.019,0.931,1.312,1.532c0.434-0.686,1.019-1.218,1.754-1.596
		c0.734-0.378,1.473-0.566,2.215-0.566c1.33,0,2.401,0.396,3.213,1.187c0.812,0.791,1.219,1.936,1.219,3.433v6.867h-3.171v-6.174
		c0-1.735-0.638-2.604-1.911-2.604c-0.63,0-1.177,0.228-1.639,0.682C354.405,61.306,354.174,61.975,354.174,62.856z"/>
	<path fill="#606060" d="M375.741,63.298c0,1.638-0.567,3.017-1.701,4.137s-2.559,1.68-4.273,1.68s-3.14-0.56-4.273-1.68
		s-1.701-2.499-1.701-4.137c0-1.639,0.567-3.021,1.701-4.147s2.559-1.69,4.273-1.69s3.14,0.563,4.273,1.69
		S375.741,61.659,375.741,63.298z M366.962,63.298c0,0.924,0.263,1.676,0.788,2.257c0.524,0.581,1.196,0.872,2.016,0.872
		s1.491-0.291,2.016-0.872c0.525-0.581,0.788-1.333,0.788-2.257c0-0.925-0.263-1.681-0.788-2.269
		c-0.524-0.588-1.196-0.882-2.016-0.882s-1.491,0.294-2.016,0.882C367.225,61.617,366.962,62.373,366.962,63.298z"/>
	<path fill="#606060" d="M381.221,62.646v6.3h-3.149V57.648h3.149v1.26c0.952-0.966,2.023-1.448,3.213-1.448
		c1.19,0,2.188,0.42,2.993,1.26c0.805,0.84,1.207,1.96,1.207,3.359v6.867h-3.149v-6.384c0-1.735-0.638-2.604-1.911-2.604
		c-0.63,0-1.18,0.228-1.648,0.682C381.456,61.096,381.221,61.765,381.221,62.646z"/>
	<path fill="#606060" d="M399.996,65.429c0,1.113-0.409,2.006-1.229,2.678s-1.858,1.008-3.118,1.008
		c-0.841,0-1.716-0.15-2.625-0.451c-0.91-0.301-1.729-0.746-2.457-1.334l1.386-1.974c1.176,0.91,2.429,1.365,3.759,1.365
		c0.406,0,0.728-0.081,0.966-0.242c0.238-0.16,0.357-0.374,0.357-0.641c0-0.266-0.165-0.511-0.494-0.734s-0.805-0.434-1.428-0.63
		s-1.099-0.364-1.428-0.504c-0.329-0.141-0.703-0.344-1.124-0.609c-0.854-0.531-1.28-1.319-1.28-2.362s0.42-1.894,1.26-2.552
		c0.84-0.657,1.925-0.986,3.255-0.986s2.66,0.448,3.99,1.344l-1.176,2.1c-0.98-0.672-1.957-1.008-2.93-1.008
		c-0.974,0-1.46,0.267-1.46,0.798c0,0.294,0.154,0.525,0.462,0.693c0.309,0.168,0.819,0.364,1.533,0.588s1.222,0.396,1.522,0.515
		s0.662,0.305,1.082,0.557C399.603,63.521,399.996,64.315,399.996,65.429z"/>
</g>
</svg>
